<svg xmlns="http://www.w3.org/2000/svg" viewBox="0 0 64 64" role="img" aria-label="ID Nest">
  <title>ID Nest mark</title>
  <path d="M32 6.5C43.5 6.5 51 19.5 51 34.5C51 47.5 42.8 56 32 56C21.2 56 13 47.5 13 34.5C13 19.5 20.5 6.5 32 6.5Z" fill="#F4E3D0"></path>
  <g fill="none" stroke="#D9572E" stroke-width="2.3" stroke-linecap="round" stroke-linejoin="round">
    <path d="M22 38.5c-1-9.5 4.6-15 10-15s11 5.5 10 15"></path>
    <path d="M26 40c-.8-6.5 2.6-10.5 6-10.5s6.8 4 6 10.5"></path>
    <path d="M30 41c-.5-3.8 .8-6 2-6s2.5 2.2 2 6"></path>
  </g>
  <circle cx="32" cy="35.6" r="1.5" fill="#D9572E"></circle>
</svg>