<svg xmlns="http://www.w3.org/2000/svg" viewBox="0 0 230 64" role="img" aria-label="ID Nest">
  <title>ID Nest logo lockup (light backgrounds)</title>
  <g transform="translate(0,2) scale(0.94)">
    <path d="M32 6.5C43.5 6.5 51 19.5 51 34.5C51 47.5 42.8 56 32 56C21.2 56 13 47.5 13 34.5C13 19.5 20.5 6.5 32 6.5Z" fill="#D9572E"></path>
  <g fill="none" stroke="#FBF6EE" stroke-width="2.3" stroke-linecap="round" stroke-linejoin="round">
    <path d="M22 38.5c-1-9.5 4.6-15 10-15s11 5.5 10 15"></path>
    <path d="M26 40c-.8-6.5 2.6-10.5 6-10.5s6.8 4 6 10.5"></path>
    <path d="M30 41c-.5-3.8 .8-6 2-6s2.5 2.2 2 6"></path>
  </g>
  <circle cx="32" cy="35.6" r="1.5" fill="#FBF6EE"></circle>
  </g>
  <text x="68" y="42" font-family="&#39;Space Grotesk&#39;, sans-serif" font-size="32" font-weight="700" letter-spacing="-0.8" fill="#2B1810">ID Nest</text>
</svg>